<svg xmlns="http://www.w3.org/2000/svg" stroke-linecap="round" stroke-linejoin="round" version="1.2" viewBox="0 0 800 445"><g stroke="#000" stroke-width=".5"><path fill="#87deaa" fill-rule="evenodd" d="m590.65 238.17 10.92-2.83 7.93 24.34 2.15-2.89 2.23-2.39 3.09-2.66 3.35-2.22 4.03-2.01 5.27-1.73 5.35-.91 6.87-.01 4.32.66 5.45 1.61 4.27 1.98 4.23 2.73 4.37 4.02 3.61 4.87 2.3 4.86 23.08 68.43.28 2.43.08 2.64-.33 3.69-.94 4.07-1.57 4.06-1.3 2.45-1.53 2.31-1.61 2.05-2.01 2.14-1.98 1.78-1.91 1.47-2.17 1.42-2.98 1.63-2.86 1.23-3.17 1.04-3.04.72-3.77.54-3.81.15-3.95-.23-5.53-1.05-4.83-1.67 1.04 3.76-10.65 2.89-44.28-135.37Zm47.67 107.37 1.12 2.53 1.37 2.17 3.36 3.62 2.31 1.72 3.05 1.64 2.88 1.07 3.24.72 3.45.28 3.99-.29 2.52-.55 3.41-1.2 2.55-1.33 2.05-1.41 2.61-2.39 2.06-2.63 1.88-3.7.92-3.3.26-4.02-.44-3.21-21.75-66.66-1.27-2.55-1.85-2.66-2.3-2.36-1.91-1.5-2.49-1.49-3.07-1.33-2.83-.79-2.85-.44-3.41-.07-4.24.59-3.76 1.18-4.01 2.13-2.98 2.41-3.02 3.7-1.82 3.63-1.01 4.16-.09 3.43.63 3.68 21.44 65.22Z"/><path fill="#c8b7b7" fill-rule="evenodd" d="m143.13 89.75-59.67-.26.62-39.54 7.35-8.45 11.46-5.68 14.82-.56 14.95 4.64 9.52 11.27.95 38.58ZM98.72 59.9l31.24.1-.4-3.73-3.43-4.03-7.62-2.26h-6.88l-7.77 1.58-4.76 4.04-.38 4.3Z"/><path fill="#cfa" d="m740.5 190.7 2.23 45.19-23.75.97-2.23-45.19 23.75-.97ZM652.9 170.09l1.3 45.92-27.22.62-1.29-45.91 27.21-.63Z"/><path fill="#c8b7b7" d="m8.19 153.68 32.34.75 32.44.63-.81 31.48-64.78-1.38.81-31.48ZM351.26 122.4h86.97v50.46h-86.97V122.4ZM146.22 289.58l74.22 1.25-.22 11.06 28.03.47-.46 22.63-45.75-.77.21-9.75-47.33-.8.17-8.49-9.2-.16.33-15.44ZM234.94 109.23l-.04-24.71 59.68-.08.03 24.71-59.67.08ZM154.92 110.16l-.55-25.56 70.49-1.26.56 25.56-70.5 1.26ZM261.6 152.73l48.67 1.64-1.47 35.92-18.1-.6.82-20.25-30.57-1.03.65-15.68ZM91.78 150.81l48.32-.4.14 15.13-31.72.26.25 25.01-16.59.14-.4-40.14ZM215.97 226.12l32.35.56-.86 36.43-.08 8.44-88.66-1.51.94-44.87 56.31.95ZM155.03 164.86l.14-13.67 96.19.76-.15 15.95-38.95-.31-.09 8.69-23.73-.19.11-10.96-33.52-.27ZM91.02 201.75l17.99-.1.27 20.48 5.27-.1-.12 11.33-5.1-.05-1.01 40.29-18.3-.51 1-71.34ZM7.28 206.34l61.32.75-.44 30.76-61.33-.75.45-30.76ZM363.15 233.81l.18-26.25 18.66.1.03-5.07 23.14.11.11-18.12 37.14.21-.34 51.37 11.32.07-.41 63.46 14.43.09-.29 43.59-62.46-.34.06-7.36-12.06-.06.07-10.76-31.37-.16.1-15.29 4.79.03.23-36.11-14-.08.12-17.48 15.77.07.15-21.99-5.37-.03ZM53.26 301.03l.17-10.16-51.64-.98.19-24.06 66.54 1.11-.3 18.68 47.14.63-.25 15.61-61.85-.83ZM204.85 191.25h8.33v6.72l-8.55-.06.22-6.66ZM772.81 331.99l23.27.11-.01 1.91-.09 14.54h-.41l-.08 12.84 3.51.01-.06 13.46-.01 2.57-.02 1.4h-2.39l-.01 2-24.82-.12.02-3.4-26.66-.12v-.47l-13.85-.07-.02 2.7-18.07-.09.11-19.28 3.53.02.08-13.67-2.95-.01.08-11.52.03-5.43 58.83.3-.01 2.32Z"/><path fill="#cfa" d="m601.33 164.54 1.38 53.07-25.81.54-1.38-53.05 25.81-.56ZM680.93 170.59l30-.93 1.66 44.68-30 .92-1.66-44.67Z"/><path fill="#e3dedb" d="m705.71 242.72 73.57.25 12.12 61.62-85.94-.37.25-61.5Z"/><path fill="#c8b7b7" d="m306.23 242.13-13.82-.01 1.13-29.5 12.86.43-.17 29.08Z"/><path fill="#c8b7b7" d="m273.34 241.91 11.56.19 7.51.02 13.82.01-.24 41.79-20.75-.37-12.37-.22.47-41.42ZM134.81 262.2l.12-17.77 10.18.05-.35 17.8-9.95-.08ZM83.46 89.49l59.67.26-1.08 32.04-59.69-.27 1.1-32.03ZM143.24 222.16l-7.93-.19-14.96-.34.01-17.91 23.26-.09-.38 18.53Z"/><path fill="#c8b7b7" d="m285.24 283.55-.47 22.7-23.98-.21.02-42.78 12.47-.19-.41 20.26 12.37.22ZM5.49 50.2l70.21.38-.43 44.5-70.46-.42.68-44.46ZM120.33 244.54l14.41-.11h.19l-.12 17.77-14.61.09.13-17.75Z"/><path fill="#c8b7b7" d="m134.74 244.43-14.41.11.02-22.91 14.96.34-.57 22.46ZM10.27 97.81l64.68-.07.09 18.72-65.02-.37.25-18.28ZM215.97 226.12l-.35-15.54 70.01 1.37-.73 30.15-11.56-.19-.06 21.16-12.47.19-13.35-.15.86-36.43-32.35-.56ZM143.24 222.16l.38-18.53 48.45.25-.05 18.53-48.78-.25ZM333.5 334.63l11.28.6-.5 7.47-11.28-.62.5-7.45Z"/><path fill="#cfa" d="m638.32 345.54-21.44-65.22-.63-3.68.09-3.43 1.01-4.16 1.82-3.63 3.02-3.7 2.98-2.41 4.01-2.13 3.76-1.18 4.24-.59 3.41.07 2.85.44 2.83.79 3.07 1.33 2.49 1.49 1.91 1.5 2.3 2.36 1.85 2.66 1.27 2.55 21.75 66.66.44 3.21-.26 4.02-.92 3.3-1.88 3.7-2.06 2.63-2.61 2.39-2.05 1.41-2.55 1.33-3.41 1.2-2.52.55-3.99.29-3.45-.28-3.24-.72-2.88-1.07-3.05-1.64-2.31-1.72-3.36-3.62-1.37-2.17-1.12-2.53Z"/><path fill="#c8b7b7" d="m151.19 52.87 13.57.17.4 5.2 17.71-.02.2 7.31 12.59-.35.4 10.87-30.32-.37-.38 3.57-13.19-.18-.98-26.2Z"/><path fill="#cfa" d="m740.5 190.7 23.55-.95 2.24 45.18-23.56.96-2.23-45.19ZM652.9 170.09l27.09-.63 1.29 45.92-27.08.63-1.3-45.92ZM602.71 217.61l-1.38-53.07 23.67-.5 1.39 53.06-23.68.51Z"/><path fill="#c8b7b7" d="m684.82 122.06 26.57-1.38.62 9.63-12.02.63.51 8.19-14.77.78-.3-4.45-2.14.12-.59-9.19 2.4-.12-.28-4.21Z"/><path fill="#c8b7b7" d="m712.01 130.31 2.06-.12-.17-2.79 9.93-.51.19 2.95 1.94-.1.51 8.11.74-.04.14 2.29 10.57-.56-.15-2.29.76-.03.62 9.76-32.18 1.69-5.84.3-.63-9.84.85-.05.17 2.41 10.57-.54-.14-2.41.58-.03-.52-8.2Z"/><path fill="#c8b7b7" d="m725.96 129.74-.63-9.85 26.97-1.41 1.16 17.95-14.93.79-.51-8.11-12.06.63ZM727.21 137.81l10.56-.56.15 2.29-10.57.56-.14-2.29Z"/><path fill="#c8b7b7" d="m725.96 129.74 12.06-.63.51 8.11-.76.03-10.56.56-.74.04-.51-8.11ZM701.35 139.08l10.6-.54.14 2.41-10.57.54-.17-2.41Z"/><path fill="#c8b7b7" d="m700.5 139.13-.51-8.19 12.02-.63.52 8.2-.58.03-10.6.54-.85.05ZM656.94 141.49l3.81-.19.22 3.4 1.87-.1.32 5.18-1.63.09.09 1.29-6.82.35-37.36 1.95-.09-1.21-1.8.08-.34-5.26 1.53-.08-.22-3.34.22-.02 3.93-.2.15 2.3 36.27-1.89-.15-2.35Z"/><path fill="#c8b7b7" d="m620.67 143.43 8.23-.43-.5-7.92 4.51-.25-.12-1.76 10.71-.56.12 1.69 4.44-.24.5 7.97 8.38-.44.15 2.35-36.27 1.89-.15-2.3Z"/><path fill="#c8b7b7" d="m674.85 122.59.28 4.21 2.4-.13.6 9.27-2.32.12.28 4.43-15.34.81-.49-7.98-12.2.64-.22-3.42-1.95.11-.34-5.28 1.96-.11-.08-1.23 27.42-1.44Z"/><path fill="#c8b7b7" d="m648.06 133.96 12.2-.64.49 7.98-3.81.19-8.38.44-.5-7.97ZM616.74 143.63l-.5-7.92 12.16-.63.5 7.92-8.23.43-3.93.2Z"/><path fill="#c8b7b7" d="m616.52 143.65-15.03.79-.29-4.59-2.28.11-.57-8.8 2.41-.12-.28-4.5 27.39-1.44.09 1.41 1.81-.09.32 4.98-1.92.1.23 3.58-12.16.63.5 7.92-.22.02ZM674.85 122.59l9.97-.53.28 4.21-2.4.12.59 9.19 2.14-.12.3 4.45 14.77-.78.63 9.84 5.84-.3.91 14.3-52.19 2.73-.89-14.19 6.82-.35-.09-1.29 1.63-.09-.32-5.18-1.87.1-.22-3.4 15.34-.81-.28-4.43 2.32-.12-.6-9.27-2.4.13-.28-4.21Z"/><path fill="#c8b7b7" d="m628.4 135.08 4.51-.25-.12-1.76 10.71-.56.12 1.69 4.44-.24-.22-3.42-1.95.11-.34-5.28 1.96-.11-.08-1.23 27.42-1.44 9.97-.53 26.57-1.38.62 9.63 2.06-.12-.17-2.79 9.93-.51.19 2.95 1.94-.1-.63-9.85 26.97-1.41 1.16 17.95-14.93.79.62 9.76-32.18 1.69.91 14.3-52.19 2.73-.89-14.19-37.36 1.95-.09-1.21-1.8.08-.34-5.26 1.53-.08-.22-3.34-15.03.79-.29-4.59-2.28.11-.57-8.8 2.41-.12-.28-4.5 27.39-1.44.09 1.41 1.81-.09.32 4.98-1.92.1.23 3.58ZM771.71 377.31l11.74.04 15.48.08-.02 1.4h-2.39l-.01 2-24.82-.12.02-3.4Z"/><path fill="#c8b7b7" d="m783.45 377.35.01-2.55 15.48.06-.01 2.57-15.48-.08ZM782.39 333.94l13.68.07-.09 14.54h-.41l-14.02-.06.02-1.86h.75l.03-6.27.04-6.42Z"/><path fill="#c8b7b7" d="m782.35 340.36-12.61-.06.03-6.42h1.76l10.86.06-.04 6.42Z"/><path fill="#c8b7b7" d="m771.53 333.88.02-1.91 1.26.02 23.27.11-.01 1.91-13.68-.07-10.86-.06Z"/><path fill="#c8b7b7" d="m731.2 376.65-14.56-.07.09-14.82 14.91.07.09-15.41-1.19-.01.03-5.81h1.29l13.32.06.04-8.81 26.33.12-.02 1.91h-1.76l-.03 6.42 12.61.06-.03 6.27h-.75l-.02 1.86 14.02.06-.08 12.84 3.51.01-.06 13.46-15.48-.06-.01 2.55-11.74-.04-26.66-.12v-.47l.06-9.42-13.85-.06-.06 9.41Z"/><path fill="#c8b7b7" d="m731.2 376.65.06-9.41 13.85.06-.06 9.42-13.85-.07ZM716.73 361.76l-.09 14.82 14.56.07-.02 2.7-18.07-.09.11-19.28 3.53.02-.02 1.76Z"/><path fill="#c8b7b7" d="m716.75 360 .08-13.67 13.71.08 1.19.01-.09 15.41-14.91-.07.02-1.76ZM731.86 340.6l.06-7.31-15.12-.09v-1.51l28.42.16-.04 8.81-13.32-.06Z"/><path fill="#c8b7b7" d="m716.83 346.33-2.95-.01.08-11.52 2.83.02.01-1.62 15.12.09-.06 7.31h-1.29l-.03 5.81-13.71-.08Z"/><path fill="#c8b7b7" d="m713.96 334.8.03-5.43 58.83.3-.01 2.32-1.26-.02-26.33-.12-28.42-.16v1.51l-.01 1.62-2.83-.02ZM581.71 219.21l93.97-2.38v5.95l-92 2.26-1.97-5.83ZM603.9 229.91l74.67-.12-.93 10.23-71.91-2.03-1.83-8.08ZM292.65 444.19 234.19 436l2.16-12.65 6.41.9 1.17-6.9-4.15-.59 1.69-9.9 4.17.57.44-2.58 52.04 7.29-5.47 32.05Z"/></g><g fill="none" stroke="#000"><path d="m1 132.48 322.86 1.88M564.14 228l10.88-.45 108.73-1.18 18.28-.19-.22 77.84.45 13.15M59.71 23.1l29.27-10.79L119.66 1l21.64 24.96 50.37 32.09 48.02 18.53M401.43 113.67l-38.47-4.91-40.63-16.13-16.12-2.14-.66 19.19"/><path stroke-linecap="square" stroke-linejoin="miter" d="m323.86 134.36-.44 210.54"/><path d="m88.98 12.31 9.97 18.52 3.94 4.99M702.26 317.17l5.92 7.3 3.37 1.69 17.87-.09M683.75 226.37l1.36 40.82"/></g></svg>